<svg width="225" height="57" viewBox="0 0 225 57" fill="none" xmlns="http://www.w3.org/2000/svg">
<rect x="4.91211" y="4.11816" width="55.6176" height="49" stroke="#D9D9D9"/>
<path d="M8.82373 47.8429L17.923 38.7042V51.4127H8.82373V47.8429ZM20.9561 35.658L30.0553 26.5194V51.4127H20.9561V35.658ZM51.287 23.9967H54.3201V51.4127H45.2208V29.5656L51.287 23.9967ZM40.6712 34.1349L42.1877 32.6118V51.4127H33.0884V26.5194L40.6712 34.1349ZM57.3531 8.76562V20.9505H54.3201V13.9775L40.6712 27.6617L31.5719 18.523L8.82373 41.3935V37.0621L31.5719 14.2393L40.6712 23.378L52.1637 11.8118H45.2208V8.76562H57.3531Z" fill="white"/>
<path d="M104.118 13.8642V16.1242H98.2982V19.7042H102.758V21.9242H98.2982V27.8242H95.4982V13.8642H104.118ZM114.664 25.1642H109.104L108.184 27.8242H105.244L110.264 13.8442H113.524L118.544 27.8242H115.584L114.664 25.1642ZM113.904 22.9242L111.884 17.0842L109.864 22.9242H113.904ZM123.22 25.6042H127.82V27.8242H120.42V13.8642H123.22V25.6042ZM128.92 20.8242C128.92 19.4509 129.226 18.2242 129.84 17.1442C130.466 16.0509 131.313 15.2042 132.38 14.6042C133.46 13.9909 134.666 13.6842 136 13.6842C137.56 13.6842 138.926 14.0842 140.1 14.8842C141.273 15.6842 142.093 16.7909 142.56 18.2042H139.34C139.02 17.5376 138.566 17.0376 137.98 16.7042C137.406 16.3709 136.74 16.2042 135.98 16.2042C135.166 16.2042 134.44 16.3976 133.8 16.7842C133.173 17.1576 132.68 17.6909 132.32 18.3842C131.973 19.0776 131.8 19.8909 131.8 20.8242C131.8 21.7442 131.973 22.5576 132.32 23.2642C132.68 23.9576 133.173 24.4976 133.8 24.8842C134.44 25.2576 135.166 25.4442 135.98 25.4442C136.74 25.4442 137.406 25.2776 137.98 24.9442C138.566 24.5976 139.02 24.0909 139.34 23.4242H142.56C142.093 24.8509 141.273 25.9642 140.1 26.7642C138.94 27.5509 137.573 27.9442 136 27.9442C134.666 27.9442 133.46 27.6442 132.38 27.0442C131.313 26.4309 130.466 25.5842 129.84 24.5042C129.226 23.4242 128.92 22.1976 128.92 20.8242ZM151.431 27.9642C150.125 27.9642 148.925 27.6576 147.831 27.0442C146.738 26.4309 145.871 25.5842 145.231 24.5042C144.591 23.4109 144.271 22.1776 144.271 20.8042C144.271 19.4442 144.591 18.2242 145.231 17.1442C145.871 16.0509 146.738 15.1976 147.831 14.5842C148.925 13.9709 150.125 13.6642 151.431 13.6642C152.751 13.6642 153.951 13.9709 155.031 14.5842C156.125 15.1976 156.985 16.0509 157.611 17.1442C158.251 18.2242 158.571 19.4442 158.571 20.8042C158.571 22.1776 158.251 23.4109 157.611 24.5042C156.985 25.5842 156.125 26.4309 155.031 27.0442C153.938 27.6576 152.738 27.9642 151.431 27.9642ZM151.431 25.4642C152.271 25.4642 153.011 25.2776 153.651 24.9042C154.291 24.5176 154.791 23.9709 155.151 23.2642C155.511 22.5576 155.691 21.7376 155.691 20.8042C155.691 19.8709 155.511 19.0576 155.151 18.3642C154.791 17.6576 154.291 17.1176 153.651 16.7442C153.011 16.3709 152.271 16.1842 151.431 16.1842C150.591 16.1842 149.845 16.3709 149.191 16.7442C148.551 17.1176 148.051 17.6576 147.691 18.3642C147.331 19.0576 147.151 19.8709 147.151 20.8042C147.151 21.7376 147.331 22.5576 147.691 23.2642C148.051 23.9709 148.551 24.5176 149.191 24.9042C149.845 25.2776 150.591 25.4642 151.431 25.4642ZM172.594 27.8242H169.794L163.454 18.2442V27.8242H160.654V13.8442H163.454L169.794 23.4442V13.8442H172.594V27.8242Z" fill="white"/>
<path d="M71.44 43.44L71.312 44.152H68.952L68.656 45.84H70.496L70.368 46.544H68.528L68.096 49H67.184L68.168 43.44H71.44ZM72.6452 44.008C72.5012 44.008 72.3839 43.9627 72.2932 43.872C72.2025 43.7813 72.1572 43.6667 72.1572 43.528C72.1572 43.3413 72.2265 43.1813 72.3652 43.048C72.5092 42.9093 72.6719 42.84 72.8532 42.84C72.9972 42.84 73.1119 42.8853 73.1972 42.976C73.2879 43.0667 73.3332 43.1813 73.3332 43.32C73.3332 43.5067 73.2639 43.6693 73.1252 43.808C72.9865 43.9413 72.8265 44.008 72.6452 44.008ZM72.9892 44.592L72.2132 49H71.3012L72.0772 44.592H72.9892ZM76.4266 44.52C76.8906 44.52 77.2586 44.6453 77.5306 44.896C77.8079 45.1413 77.9466 45.496 77.9466 45.96C77.9466 46.0773 77.9332 46.224 77.9066 46.4L77.4426 49H76.5386L76.9786 46.536C76.9999 46.3867 77.0106 46.28 77.0106 46.216C77.0106 45.9227 76.9279 45.6987 76.7626 45.544C76.6026 45.3893 76.3786 45.312 76.0906 45.312C75.7439 45.312 75.4506 45.4187 75.2106 45.632C74.9759 45.84 74.8266 46.1413 74.7626 46.536V46.512L74.3226 49H73.4106L74.1866 44.592H75.0986L75.0106 45.104C75.1919 44.9227 75.4052 44.7813 75.6506 44.68C75.9012 44.5733 76.1599 44.52 76.4266 44.52ZM78.6939 46.776C78.7739 46.3333 78.9339 45.9413 79.1739 45.6C79.4192 45.2587 79.7179 44.9947 80.0699 44.808C80.4219 44.616 80.7899 44.52 81.1739 44.52C81.5205 44.52 81.8112 44.5893 82.0459 44.728C82.2805 44.8613 82.4565 45.0293 82.5739 45.232L82.6859 44.592H83.6059L82.8299 49H81.9099L82.0299 48.344C81.8379 48.552 81.5952 48.7253 81.3019 48.864C81.0139 49.0027 80.6992 49.072 80.3579 49.072C80.0272 49.072 79.7312 48.9973 79.4699 48.848C79.2139 48.6987 79.0112 48.488 78.8619 48.216C78.7179 47.9387 78.6459 47.6213 78.6459 47.264C78.6459 47.104 78.6619 46.9413 78.6939 46.776ZM82.3019 46.792C82.3232 46.6907 82.3339 46.5813 82.3339 46.464C82.3339 46.1067 82.2272 45.8267 82.0139 45.624C81.8059 45.416 81.5445 45.312 81.2299 45.312C80.9952 45.312 80.7659 45.3707 80.5419 45.488C80.3179 45.6 80.1232 45.768 79.9579 45.992C79.7925 46.2107 79.6832 46.472 79.6299 46.776C79.6085 46.8773 79.5979 46.9867 79.5979 47.104C79.5979 47.4667 79.7019 47.7547 79.9099 47.968C80.1232 48.176 80.3872 48.28 80.7019 48.28C80.9365 48.28 81.1659 48.2213 81.3899 48.104C81.6139 47.9867 81.8085 47.816 81.9739 47.592C82.1392 47.3627 82.2485 47.096 82.3019 46.792ZM87.0438 44.52C87.5078 44.52 87.8758 44.6453 88.1478 44.896C88.4251 45.1413 88.5638 45.496 88.5638 45.96C88.5638 46.0773 88.5504 46.224 88.5238 46.4L88.0598 49H87.1558L87.5958 46.536C87.6171 46.3867 87.6278 46.28 87.6278 46.216C87.6278 45.9227 87.5451 45.6987 87.3798 45.544C87.2198 45.3893 86.9958 45.312 86.7078 45.312C86.3611 45.312 86.0678 45.4187 85.8278 45.632C85.5931 45.84 85.4438 46.1413 85.3798 46.536V46.512L84.9398 49H84.0278L84.8038 44.592H85.7158L85.6278 45.104C85.8091 44.9227 86.0224 44.7813 86.2678 44.68C86.5184 44.5733 86.7771 44.52 87.0438 44.52ZM89.3111 46.792C89.3911 46.3387 89.5511 45.9413 89.7911 45.6C90.0364 45.2533 90.3377 44.9867 90.6951 44.8C91.0577 44.6133 91.4497 44.52 91.8711 44.52C92.4044 44.52 92.8231 44.648 93.1271 44.904C93.4311 45.1547 93.6044 45.5147 93.6471 45.984H92.6631C92.6204 45.7653 92.5217 45.5947 92.3671 45.472C92.2124 45.3493 92.0017 45.288 91.7351 45.288C91.3617 45.288 91.0417 45.4213 90.7751 45.688C90.5084 45.9493 90.3324 46.3173 90.2471 46.792C90.2204 46.9627 90.2071 47.1013 90.2071 47.208C90.2071 47.56 90.2951 47.832 90.4711 48.024C90.6471 48.2107 90.8924 48.304 91.2071 48.304C91.7351 48.304 92.1244 48.072 92.3751 47.608H93.3591C93.1511 48.056 92.8471 48.4133 92.4471 48.68C92.0524 48.9413 91.5937 49.072 91.0711 49.072C90.5164 49.072 90.0764 48.9147 89.7511 48.6C89.4257 48.28 89.2631 47.848 89.2631 47.304C89.2631 47.1387 89.2791 46.968 89.3111 46.792ZM95.3639 44.008C95.2199 44.008 95.1026 43.9627 95.0119 43.872C94.9213 43.7813 94.8759 43.6667 94.8759 43.528C94.8759 43.3413 94.9453 43.1813 95.0839 43.048C95.2279 42.9093 95.3906 42.84 95.5719 42.84C95.7159 42.84 95.8306 42.8853 95.9159 42.976C96.0066 43.0667 96.0519 43.1813 96.0519 43.32C96.0519 43.5067 95.9826 43.6693 95.8439 43.808C95.7053 43.9413 95.5453 44.008 95.3639 44.008ZM95.7079 44.592L94.9319 49H94.0199L94.7959 44.592H95.7079ZM96.2173 46.776C96.2973 46.3333 96.4573 45.9413 96.6973 45.6C96.9426 45.2587 97.2413 44.9947 97.5933 44.808C97.9453 44.616 98.3133 44.52 98.6973 44.52C99.044 44.52 99.3346 44.5893 99.5693 44.728C99.804 44.8613 99.98 45.0293 100.097 45.232L100.209 44.592H101.129L100.353 49H99.4333L99.5533 48.344C99.3613 48.552 99.1186 48.7253 98.8253 48.864C98.5373 49.0027 98.2226 49.072 97.8813 49.072C97.5506 49.072 97.2546 48.9973 96.9933 48.848C96.7373 48.6987 96.5346 48.488 96.3853 48.216C96.2413 47.9387 96.1693 47.6213 96.1693 47.264C96.1693 47.104 96.1853 46.9413 96.2173 46.776ZM99.8253 46.792C99.8466 46.6907 99.8573 46.5813 99.8573 46.464C99.8573 46.1067 99.7506 45.8267 99.5373 45.624C99.3293 45.416 99.068 45.312 98.7533 45.312C98.5186 45.312 98.2893 45.3707 98.0653 45.488C97.8413 45.6 97.6466 45.768 97.4813 45.992C97.316 46.2107 97.2066 46.472 97.1533 46.776C97.132 46.8773 97.1213 46.9867 97.1213 47.104C97.1213 47.4667 97.2253 47.7547 97.4333 47.968C97.6466 48.176 97.9106 48.28 98.2253 48.28C98.46 48.28 98.6893 48.2213 98.9133 48.104C99.1373 47.9867 99.332 47.816 99.4973 47.592C99.6626 47.3627 99.772 47.096 99.8253 46.792ZM103.511 43.08L102.463 49H101.551L102.599 43.08H103.511ZM109.611 47.864H107.283L106.683 49H105.731L108.707 43.432H109.763L110.771 49H109.811L109.611 47.864ZM109.491 47.152L109.035 44.536L107.659 47.152H109.491ZM113.533 43.44L112.549 49H111.637L112.621 43.44H113.533ZM117.185 48.304H119.065L118.937 49H116.145L117.129 43.44H118.041L117.185 48.304ZM122.388 44.52C122.937 44.52 123.374 44.6747 123.7 44.984C124.03 45.2933 124.196 45.7093 124.196 46.232C124.196 46.3547 124.182 46.5013 124.156 46.672C124.134 46.7893 124.097 46.9333 124.044 47.104H120.676C120.67 47.1413 120.668 47.1973 120.668 47.272C120.668 47.5867 120.764 47.8373 120.956 48.024C121.153 48.2107 121.409 48.304 121.724 48.304C122.22 48.304 122.601 48.0987 122.868 47.688H123.852C123.649 48.0933 123.35 48.4267 122.956 48.688C122.561 48.944 122.105 49.072 121.588 49.072C121.22 49.072 120.897 49 120.62 48.856C120.342 48.712 120.126 48.5067 119.972 48.24C119.817 47.968 119.74 47.6507 119.74 47.288C119.74 47.1333 119.756 46.968 119.788 46.792C119.868 46.3387 120.03 45.9413 120.276 45.6C120.521 45.2533 120.825 44.9867 121.188 44.8C121.556 44.6133 121.956 44.52 122.388 44.52ZM123.244 46.448C123.254 46.352 123.26 46.2827 123.26 46.24C123.26 45.9467 123.161 45.7147 122.964 45.544C122.772 45.3733 122.521 45.288 122.212 45.288C121.886 45.288 121.593 45.392 121.332 45.6C121.07 45.808 120.892 46.0907 120.796 46.448H123.244ZM126.485 48.184L128.365 44.592H129.349L126.893 49H125.789L124.893 44.592H125.869L126.485 48.184ZM131.935 44.52C132.484 44.52 132.921 44.6747 133.247 44.984C133.577 45.2933 133.743 45.7093 133.743 46.232C133.743 46.3547 133.729 46.5013 133.703 46.672C133.681 46.7893 133.644 46.9333 133.591 47.104H130.223C130.217 47.1413 130.215 47.1973 130.215 47.272C130.215 47.5867 130.311 47.8373 130.503 48.024C130.7 48.2107 130.956 48.304 131.271 48.304C131.767 48.304 132.148 48.0987 132.415 47.688H133.399C133.196 48.0933 132.897 48.4267 132.503 48.688C132.108 48.944 131.652 49.072 131.135 49.072C130.767 49.072 130.444 49 130.167 48.856C129.889 48.712 129.673 48.5067 129.519 48.24C129.364 47.968 129.287 47.6507 129.287 47.288C129.287 47.1333 129.303 46.968 129.335 46.792C129.415 46.3387 129.577 45.9413 129.823 45.6C130.068 45.2533 130.372 44.9867 130.735 44.8C131.103 44.6133 131.503 44.52 131.935 44.52ZM132.791 46.448C132.801 46.352 132.807 46.2827 132.807 46.24C132.807 45.9467 132.708 45.7147 132.511 45.544C132.319 45.3733 132.068 45.288 131.759 45.288C131.433 45.288 131.14 45.392 130.879 45.6C130.617 45.808 130.439 46.0907 130.343 46.448H132.791ZM135.736 45.368C135.917 45.1013 136.131 44.8933 136.376 44.744C136.627 44.5947 136.904 44.52 137.208 44.52L137.04 45.464H136.808C136.456 45.464 136.173 45.552 135.96 45.728C135.747 45.904 135.597 46.208 135.512 46.64L135.096 49H134.184L134.96 44.592H135.872L135.736 45.368ZM137.342 46.776C137.422 46.3333 137.582 45.9413 137.822 45.6C138.068 45.2587 138.366 44.9947 138.718 44.808C139.07 44.616 139.438 44.52 139.822 44.52C140.169 44.52 140.46 44.5893 140.694 44.728C140.929 44.8613 141.105 45.0293 141.222 45.232L141.334 44.592H142.254L141.478 49H140.558L140.678 48.344C140.486 48.552 140.244 48.7253 139.95 48.864C139.662 49.0027 139.348 49.072 139.006 49.072C138.676 49.072 138.38 48.9973 138.118 48.848C137.862 48.6987 137.66 48.488 137.51 48.216C137.366 47.9387 137.294 47.6213 137.294 47.264C137.294 47.104 137.31 46.9413 137.342 46.776ZM140.95 46.792C140.972 46.6907 140.982 46.5813 140.982 46.464C140.982 46.1067 140.876 45.8267 140.662 45.624C140.454 45.416 140.193 45.312 139.878 45.312C139.644 45.312 139.414 45.3707 139.19 45.488C138.966 45.6 138.772 45.768 138.606 45.992C138.441 46.2107 138.332 46.472 138.278 46.776C138.257 46.8773 138.246 46.9867 138.246 47.104C138.246 47.4667 138.35 47.7547 138.558 47.968C138.772 48.176 139.036 48.28 139.35 48.28C139.585 48.28 139.814 48.2213 140.038 48.104C140.262 47.9867 140.457 47.816 140.622 47.592C140.788 47.3627 140.897 47.096 140.95 46.792ZM145.244 44.52C145.586 44.52 145.876 44.5893 146.116 44.728C146.362 44.8613 146.538 45.0293 146.644 45.232L146.756 44.592H147.676L146.892 49.072C146.818 49.4773 146.668 49.8373 146.444 50.152C146.22 50.472 145.93 50.7227 145.572 50.904C145.215 51.0853 144.812 51.176 144.364 51.176C143.975 51.176 143.634 51.112 143.34 50.984C143.047 50.8613 142.826 50.6827 142.676 50.448C142.527 50.2133 142.463 49.936 142.484 49.616H143.388C143.415 49.8453 143.53 50.0293 143.732 50.168C143.935 50.312 144.194 50.384 144.508 50.384C144.876 50.384 145.194 50.272 145.46 50.048C145.727 49.824 145.898 49.4987 145.972 49.072L146.1 48.336C145.908 48.544 145.668 48.72 145.38 48.864C145.092 49.0027 144.78 49.072 144.444 49.072C144.108 49.072 143.81 48.9973 143.548 48.848C143.287 48.6987 143.082 48.488 142.932 48.216C142.788 47.9387 142.716 47.6213 142.716 47.264C142.716 47.104 142.732 46.9413 142.764 46.776C142.844 46.3333 143.004 45.9413 143.244 45.6C143.49 45.2587 143.788 44.9947 144.14 44.808C144.492 44.616 144.86 44.52 145.244 44.52ZM146.372 46.792C146.394 46.6907 146.404 46.5813 146.404 46.464C146.404 46.1067 146.298 45.8267 146.084 45.624C145.876 45.416 145.615 45.312 145.3 45.312C145.066 45.312 144.836 45.3707 144.612 45.488C144.388 45.6 144.194 45.768 144.028 45.992C143.863 46.2107 143.754 46.472 143.7 46.776C143.679 46.8773 143.668 46.9867 143.668 47.104C143.668 47.4667 143.772 47.7547 143.98 47.968C144.194 48.176 144.458 48.28 144.772 48.28C145.007 48.28 145.236 48.2213 145.46 48.104C145.684 47.9867 145.879 47.816 146.044 47.592C146.21 47.3627 146.319 47.096 146.372 46.792ZM150.786 44.52C151.335 44.52 151.773 44.6747 152.098 44.984C152.429 45.2933 152.594 45.7093 152.594 46.232C152.594 46.3547 152.581 46.5013 152.554 46.672C152.533 46.7893 152.495 46.9333 152.442 47.104H149.074C149.069 47.1413 149.066 47.1973 149.066 47.272C149.066 47.5867 149.162 47.8373 149.354 48.024C149.551 48.2107 149.807 48.304 150.122 48.304C150.618 48.304 150.999 48.0987 151.266 47.688H152.25C152.047 48.0933 151.749 48.4267 151.354 48.688C150.959 48.944 150.503 49.072 149.986 49.072C149.618 49.072 149.295 49 149.018 48.856C148.741 48.712 148.525 48.5067 148.37 48.24C148.215 47.968 148.138 47.6507 148.138 47.288C148.138 47.1333 148.154 46.968 148.186 46.792C148.266 46.3387 148.429 45.9413 148.674 45.6C148.919 45.2533 149.223 44.9867 149.586 44.8C149.954 44.6133 150.354 44.52 150.786 44.52ZM151.642 46.448C151.653 46.352 151.658 46.2827 151.658 46.24C151.658 45.9467 151.559 45.7147 151.362 45.544C151.17 45.3733 150.919 45.288 150.61 45.288C150.285 45.288 149.991 45.392 149.73 45.6C149.469 45.808 149.29 46.0907 149.194 46.448H151.642ZM153.124 46.776C153.204 46.3333 153.364 45.9413 153.604 45.6C153.849 45.2587 154.148 44.9947 154.5 44.808C154.852 44.616 155.222 44.52 155.612 44.52C155.9 44.52 156.172 44.584 156.428 44.712C156.684 44.8347 156.878 45 157.012 45.208L157.388 43.08H158.308L157.26 49H156.34L156.46 48.336C156.268 48.5547 156.028 48.7333 155.74 48.872C155.457 49.0053 155.145 49.072 154.804 49.072C154.468 49.072 154.169 48.9973 153.908 48.848C153.646 48.6987 153.441 48.488 153.292 48.216C153.148 47.9387 153.076 47.6213 153.076 47.264C153.076 47.104 153.092 46.9413 153.124 46.776ZM156.732 46.792C156.753 46.6907 156.764 46.5813 156.764 46.464C156.764 46.1067 156.657 45.8267 156.444 45.624C156.236 45.416 155.974 45.312 155.66 45.312C155.425 45.312 155.196 45.3707 154.972 45.488C154.748 45.6 154.553 45.768 154.388 45.992C154.222 46.2107 154.113 46.472 154.06 46.776C154.038 46.8773 154.028 46.9867 154.028 47.104C154.028 47.4667 154.132 47.7547 154.34 47.968C154.553 48.176 154.817 48.28 155.132 48.28C155.366 48.28 155.596 48.2213 155.82 48.104C156.044 47.9867 156.238 47.816 156.404 47.592C156.569 47.3627 156.678 47.096 156.732 46.792ZM161.048 46.208C161.144 45.664 161.355 45.176 161.68 44.744C162.011 44.312 162.413 43.976 162.888 43.736C163.368 43.4907 163.867 43.368 164.384 43.368C164.976 43.368 165.477 43.5147 165.888 43.808C166.304 44.096 166.568 44.5067 166.68 45.04H165.584C165.483 44.7627 165.317 44.5547 165.088 44.416C164.859 44.272 164.576 44.2 164.24 44.2C163.872 44.2 163.528 44.2827 163.208 44.448C162.893 44.6133 162.627 44.848 162.408 45.152C162.195 45.456 162.053 45.808 161.984 46.208C161.957 46.384 161.944 46.5333 161.944 46.656C161.944 47.136 162.088 47.5173 162.376 47.8C162.664 48.0827 163.048 48.224 163.528 48.224C163.864 48.224 164.173 48.1547 164.456 48.016C164.739 47.872 164.976 47.6613 165.168 47.384H166.264C165.96 47.9173 165.552 48.328 165.04 48.616C164.528 48.904 163.976 49.048 163.384 49.048C162.925 49.048 162.515 48.952 162.152 48.76C161.789 48.568 161.507 48.2987 161.304 47.952C161.101 47.6053 161 47.2053 161 46.752C161 46.5813 161.016 46.4 161.048 46.208ZM168.971 49.072C168.598 49.072 168.27 48.9947 167.987 48.84C167.705 48.6853 167.483 48.4667 167.323 48.184C167.169 47.9013 167.091 47.5787 167.091 47.216C167.091 46.72 167.206 46.2667 167.435 45.856C167.67 45.4453 167.99 45.12 168.395 44.88C168.806 44.64 169.262 44.52 169.763 44.52C170.137 44.52 170.467 44.6 170.755 44.76C171.043 44.9147 171.267 45.1333 171.427 45.416C171.593 45.6933 171.675 46.016 171.675 46.384C171.675 46.88 171.555 47.3333 171.315 47.744C171.075 48.1547 170.75 48.48 170.339 48.72C169.929 48.9547 169.473 49.072 168.971 49.072ZM169.083 48.304C169.387 48.304 169.665 48.2187 169.915 48.048C170.171 47.872 170.371 47.6427 170.515 47.36C170.659 47.072 170.731 46.7653 170.731 46.44C170.731 46.072 170.627 45.7893 170.419 45.592C170.211 45.3893 169.95 45.288 169.635 45.288C169.326 45.288 169.049 45.376 168.803 45.552C168.563 45.7227 168.374 45.9547 168.235 46.248C168.102 46.536 168.035 46.8453 168.035 47.176C168.035 47.5333 168.131 47.8107 168.323 48.008C168.521 48.2053 168.774 48.304 169.083 48.304ZM175.161 44.52C175.625 44.52 175.993 44.6453 176.265 44.896C176.542 45.1413 176.681 45.496 176.681 45.96C176.681 46.0773 176.668 46.224 176.641 46.4L176.177 49H175.273L175.713 46.536C175.734 46.3867 175.745 46.28 175.745 46.216C175.745 45.9227 175.662 45.6987 175.497 45.544C175.337 45.3893 175.113 45.312 174.825 45.312C174.478 45.312 174.185 45.4187 173.945 45.632C173.71 45.84 173.561 46.1413 173.497 46.536V46.512L173.057 49H172.145L172.921 44.592H173.833L173.745 45.104C173.926 44.9227 174.14 44.7813 174.385 44.68C174.636 44.5733 174.894 44.52 175.161 44.52ZM178.62 47.776C178.61 47.8507 178.604 47.8987 178.604 47.92C178.604 48.032 178.639 48.1147 178.708 48.168C178.778 48.216 178.892 48.24 179.052 48.24H179.612L179.476 49H178.756C178.404 49 178.135 48.9307 177.948 48.792C177.762 48.648 177.668 48.4213 177.668 48.112C177.668 47.9947 177.679 47.8827 177.7 47.776L178.132 45.336H177.612L177.74 44.592H178.268L178.46 43.496H179.38L179.188 44.592H180.252L180.124 45.336H179.052L178.62 47.776ZM181.869 45.368C182.05 45.1013 182.263 44.8933 182.509 44.744C182.759 44.5947 183.037 44.52 183.341 44.52L183.173 45.464H182.941C182.589 45.464 182.306 45.552 182.093 45.728C181.879 45.904 181.73 46.208 181.645 46.64L181.229 49H180.317L181.093 44.592H182.005L181.869 45.368ZM185.315 49.072C184.942 49.072 184.614 48.9947 184.331 48.84C184.048 48.6853 183.827 48.4667 183.667 48.184C183.512 47.9013 183.435 47.5787 183.435 47.216C183.435 46.72 183.55 46.2667 183.779 45.856C184.014 45.4453 184.334 45.12 184.739 44.88C185.15 44.64 185.606 44.52 186.107 44.52C186.48 44.52 186.811 44.6 187.099 44.76C187.387 44.9147 187.611 45.1333 187.771 45.416C187.936 45.6933 188.019 46.016 188.019 46.384C188.019 46.88 187.899 47.3333 187.659 47.744C187.419 48.1547 187.094 48.48 186.683 48.72C186.272 48.9547 185.816 49.072 185.315 49.072ZM185.427 48.304C185.731 48.304 186.008 48.2187 186.259 48.048C186.515 47.872 186.715 47.6427 186.859 47.36C187.003 47.072 187.075 46.7653 187.075 46.44C187.075 46.072 186.971 45.7893 186.763 45.592C186.555 45.3893 186.294 45.288 185.979 45.288C185.67 45.288 185.392 45.376 185.147 45.552C184.907 45.7227 184.718 45.9547 184.579 46.248C184.446 46.536 184.379 46.8453 184.379 47.176C184.379 47.5333 184.475 47.8107 184.667 48.008C184.864 48.2053 185.118 48.304 185.427 48.304ZM190.449 43.08L189.401 49H188.489L189.537 43.08H190.449ZM192.558 43.08L191.51 49H190.598L191.646 43.08H192.558ZM194.051 44.008C193.907 44.008 193.79 43.9627 193.699 43.872C193.609 43.7813 193.563 43.6667 193.563 43.528C193.563 43.3413 193.633 43.1813 193.771 43.048C193.915 42.9093 194.078 42.84 194.259 42.84C194.403 42.84 194.518 42.8853 194.603 42.976C194.694 43.0667 194.739 43.1813 194.739 43.32C194.739 43.5067 194.67 43.6693 194.531 43.808C194.393 43.9413 194.233 44.008 194.051 44.008ZM194.395 44.592L193.619 49H192.707L193.483 44.592H194.395ZM197.833 44.52C198.297 44.52 198.665 44.6453 198.937 44.896C199.214 45.1413 199.353 45.496 199.353 45.96C199.353 46.0773 199.339 46.224 199.313 46.4L198.849 49H197.945L198.385 46.536C198.406 46.3867 198.417 46.28 198.417 46.216C198.417 45.9227 198.334 45.6987 198.169 45.544C198.009 45.3893 197.785 45.312 197.497 45.312C197.15 45.312 196.857 45.4187 196.617 45.632C196.382 45.84 196.233 46.1413 196.169 46.536V46.512L195.729 49H194.817L195.593 44.592H196.505L196.417 45.104C196.598 44.9227 196.811 44.7813 197.057 44.68C197.307 44.5733 197.566 44.52 197.833 44.52ZM202.58 44.52C202.921 44.52 203.212 44.5893 203.452 44.728C203.697 44.8613 203.873 45.0293 203.98 45.232L204.092 44.592H205.012L204.228 49.072C204.153 49.4773 204.004 49.8373 203.78 50.152C203.556 50.472 203.265 50.7227 202.908 50.904C202.551 51.0853 202.148 51.176 201.7 51.176C201.311 51.176 200.969 51.112 200.676 50.984C200.383 50.8613 200.161 50.6827 200.012 50.448C199.863 50.2133 199.799 49.936 199.82 49.616H200.724C200.751 49.8453 200.865 50.0293 201.068 50.168C201.271 50.312 201.529 50.384 201.844 50.384C202.212 50.384 202.529 50.272 202.796 50.048C203.063 49.824 203.233 49.4987 203.308 49.072L203.436 48.336C203.244 48.544 203.004 48.72 202.716 48.864C202.428 49.0027 202.116 49.072 201.78 49.072C201.444 49.072 201.145 48.9973 200.884 48.848C200.623 48.6987 200.417 48.488 200.268 48.216C200.124 47.9387 200.052 47.6213 200.052 47.264C200.052 47.104 200.068 46.9413 200.1 46.776C200.18 46.3333 200.34 45.9413 200.58 45.6C200.825 45.2587 201.124 44.9947 201.476 44.808C201.828 44.616 202.196 44.52 202.58 44.52ZM203.708 46.792C203.729 46.6907 203.74 46.5813 203.74 46.464C203.74 46.1067 203.633 45.8267 203.42 45.624C203.212 45.416 202.951 45.312 202.636 45.312C202.401 45.312 202.172 45.3707 201.948 45.488C201.724 45.6 201.529 45.768 201.364 45.992C201.199 46.2107 201.089 46.472 201.036 46.776C201.015 46.8773 201.004 46.9867 201.004 47.104C201.004 47.4667 201.108 47.7547 201.316 47.968C201.529 48.176 201.793 48.28 202.108 48.28C202.343 48.28 202.572 48.2213 202.796 48.104C203.02 47.9867 203.215 47.816 203.38 47.592C203.545 47.3627 203.655 47.096 203.708 46.792Z" fill="white"/>
</svg>
